<?xml version="1.0" encoding="iso-8859-1"?>
<!-- Generator: Adobe Illustrator 19.0.0, SVG Export Plug-In . SVG Version: 6.00 Build 0)  -->
<svg version="1.1" id="Capa_1" xmlns="http://www.w3.org/2000/svg" xmlns:xlink="http://www.w3.org/1999/xlink" x="0px" y="0px"
	 viewBox="0 0 512.001 512.001" style="enable-background:new 0 0 512.001 512.001;" xml:space="preserve">
<path style="fill:#87D2F3;" d="M440.145,82.56L266.705,256l173.44,173.44c-95.788,95.829-251.125,95.862-346.954,0.074
	S-2.671,178.389,93.118,82.56s251.125-95.862,346.954-0.074C440.096,82.511,440.121,82.535,440.145,82.56L440.145,82.56z
	 M277.372,117.333c0-17.673-14.327-32-32-32s-32,14.327-32,32s14.327,32,32,32S277.372,135.006,277.372,117.333z"/>
<g>
	<circle style="fill:#FFFFFF;" cx="469.372" cy="256" r="21.333"/>
	<circle style="fill:#FFFFFF;" cx="384.039" cy="256" r="21.333"/>
	<circle style="fill:#FFFFFF;" cx="245.372" cy="117.333" r="32"/>
</g>
<g>
	<path style="fill:#2170A6;" d="M266.705,512C125.32,512.042,10.671,397.461,10.629,256.076C10.587,114.691,125.168,0.042,266.553,0
		c67.946-0.02,133.112,26.972,181.144,75.029c4.157,4.164,4.157,10.908,0,15.072L281.788,256l165.899,165.899
		c4.157,4.164,4.157,10.908,0,15.072C399.823,485.181,334.64,512.204,266.705,512L266.705,512z M266.705,21.333
		C137.102,21.305,32.016,126.346,31.988,255.949C31.96,385.552,137.001,490.639,266.604,490.667
		c58.579,0.013,115.044-21.884,158.299-61.387L259.164,263.541c-4.164-4.165-4.164-10.917,0-15.083L424.903,82.72
		C381.781,43.067,325.286,21.145,266.705,21.333L266.705,21.333z"/>
	<path style="fill:#2170A6;" d="M245.372,160c-23.564,0-42.667-19.103-42.667-42.667s19.103-42.667,42.667-42.667
		s42.667,19.103,42.667,42.667S268.936,160,245.372,160z M245.372,96c-11.782,0-21.333,9.551-21.333,21.333
		s9.551,21.333,21.333,21.333c11.782,0,21.333-9.551,21.333-21.333S257.154,96,245.372,96z"/>
	<path style="fill:#2170A6;" d="M469.372,288c-17.673,0-32-14.327-32-32s14.327-32,32-32s32,14.327,32,32S487.045,288,469.372,288z
		 M469.372,245.333c-5.891,0-10.667,4.776-10.667,10.667c0,5.891,4.776,10.667,10.667,10.667c5.891,0,10.667-4.776,10.667-10.667
		C480.039,250.109,475.263,245.333,469.372,245.333z"/>
	<path style="fill:#2170A6;" d="M384.039,288c-17.673,0-32-14.327-32-32s14.327-32,32-32s32,14.327,32,32S401.712,288,384.039,288z
		 M384.039,245.333c-5.891,0-10.667,4.776-10.667,10.667c0,5.891,4.776,10.667,10.667,10.667c5.891,0,10.667-4.776,10.667-10.667
		C394.705,250.109,389.93,245.333,384.039,245.333z"/>
</g>
<g>
</g>
<g>
</g>
<g>
</g>
<g>
</g>
<g>
</g>
<g>
</g>
<g>
</g>
<g>
</g>
<g>
</g>
<g>
</g>
<g>
</g>
<g>
</g>
<g>
</g>
<g>
</g>
<g>
</g>
</svg>
