<?xml version="1.0" standalone="no"?>
<!DOCTYPE svg PUBLIC "-//W3C//DTD SVG 20010904//EN"
 "http://www.w3.org/TR/2001/REC-SVG-20010904/DTD/svg10.dtd">
<svg version="1.0" xmlns="http://www.w3.org/2000/svg"
 width="512.000000pt" height="512.000000pt" viewBox="0 0 512.000000 512.000000"
 preserveAspectRatio="xMidYMid meet">
<metadata>
Created by potrace 1.11, written by Peter Selinger 2001-2013
</metadata>
<g transform="translate(0.000000,512.000000) scale(0.100000,-0.100000)"
fill="#000000" stroke="none">
<path d="M2450 5110 c-52 -5 -140 -16 -195 -25 -1003 -163 -1822 -915 -2068
-1900 -59 -237 -72 -348 -72 -625 0 -277 13 -388 72 -625 243 -976 1050 -1724
2045 -1895 637 -110 1292 24 1828 375 191 124 412 313 437 372 7 19 11 45 7
61 -4 18 -269 290 -848 870 l-841 842 841 843 c579 579 844 851 848 869 10 46
-17 90 -105 170 -394 359 -875 583 -1399 654 -134 18 -427 25 -550 14z m369
-210 c424 -29 795 -154 1141 -385 133 -88 279 -203 280 -220 0 -5 -375 -386
-834 -845 -568 -568 -837 -844 -842 -862 -3 -16 -3 -40 0 -55 5 -19 275 -296
844 -865 l836 -837 -29 -32 c-17 -17 -71 -62 -122 -100 -343 -259 -727 -414
-1158 -470 -49 -6 -173 -11 -275 -11 -627 0 -1210 243 -1656 690 -237 236
-439 556 -548 868 -94 265 -130 486 -130 784 0 403 75 718 255 1071 368 723
1103 1210 1912 1268 161 12 167 12 326 1z"/>
<path d="M2315 4349 c-90 -31 -160 -85 -215 -165 -79 -113 -93 -288 -34 -414
129 -271 473 -334 685 -126 213 210 152 560 -121 690 -56 26 -78 31 -160 33
-77 3 -107 -1 -155 -18z m234 -215 c133 -67 157 -240 48 -341 -106 -98 -267
-69 -332 60 -43 87 -28 174 42 244 68 68 153 81 242 37z"/>
<path d="M3767 2870 c-92 -24 -179 -97 -219 -185 -16 -38 -22 -69 -22 -125 0
-93 25 -155 91 -222 122 -125 323 -125 447 -2 122 122 122 327 1 449 -72 71
-203 109 -298 85z m129 -222 c44 -21 61 -93 34 -143 -7 -13 -30 -31 -52 -40
-33 -13 -43 -13 -72 -1 -43 18 -66 51 -66 96 0 83 78 127 156 88z"/>
<path d="M4617 2870 c-90 -23 -167 -87 -209 -175 -58 -123 -28 -279 71 -368
64 -57 122 -80 211 -81 66 -1 84 3 143 32 121 60 185 174 174 309 -6 78 -44
159 -94 204 -79 69 -204 102 -296 79z m131 -223 c27 -13 52 -56 52 -87 0 -91
-116 -136 -181 -71 -52 52 -34 137 35 167 32 13 53 11 94 -9z"/>
</g>
</svg>
